<svg xmlns="http://www.w3.org/2000/svg" version="1.1" xmlns:xlink="http://www.w3.org/1999/xlink" xmlns:svgjs="http://svgjs.com/svgjs" width="1000" height="1000"><g transform="matrix(15.625,0,0,15.625,-2.8301717340946198,24.61351202428341)"><svg xmlns="http://www.w3.org/2000/svg" version="1.1" xmlns:xlink="http://www.w3.org/1999/xlink" xmlns:svgjs="http://svgjs.com/svgjs" width="64" height="60"><svg width="64" height="60" viewBox="0 0 64 60" fill="none" xmlns="http://www.w3.org/2000/svg">
<g clip-path="url(#clip0_255_1082)">
<path d="M44.1213 0.986755L31.5122 1.09432L59.4076 41.5749L63.9134 29.6949L44.1213 0.986755Z" fill="#0830E5"></path>
<path d="M13.9673 13.5002L45.9382 59.9089L52.4639 59.9208H52.4758L54.6511 54.1481L22.5008 7.4646L13.9673 13.5002Z" fill="#0830E5"></path>
<path d="M36.1616 49.4033H25.2974L4.94359 19.8586L4.93164 19.8705L0.473633 31.7625L19.7877 59.8372L23.433 59.8491H23.4449H25.656L32.5043 59.8731L32.4924 59.8491L43.3446 59.8372L36.1616 49.4033Z" fill="#0830E5"></path>
</g>
<defs>
<clipPath id="clip0_255_1082">
<rect width="63.4399" height="58.9341" fill="white" transform="translate(0.473633 0.986755)"></rect>
</clipPath>
</defs>
</svg></svg></g></svg>