<?xml version="1.0" standalone="no"?>
<!DOCTYPE svg PUBLIC "-//W3C//DTD SVG 20010904//EN"
 "http://www.w3.org/TR/2001/REC-SVG-20010904/DTD/svg10.dtd">
<svg version="1.0" xmlns="http://www.w3.org/2000/svg"
 width="128.000000pt" height="128.000000pt" viewBox="0 0 128.000000 128.000000"
 preserveAspectRatio="xMidYMid meet">
<metadata>
Created by potrace 1.14, written by Peter Selinger 2001-2017
</metadata>
<g transform="translate(0.000000,128.000000) scale(0.100000,-0.100000)"
fill="#000000" stroke="none">
<path d="M648 1183 c10 -16 135 -197 277 -403 142 -206 259 -376 260 -378 3
-4 83 201 87 222 2 9 -85 144 -192 301 l-195 284 -128 1 -128 0 19 -27z"/>
<path d="M365 1021 c-44 -31 -79 -61 -79 -65 1 -4 142 -212 314 -462 l314
-455 70 3 71 3 18 52 19 52 -307 445 c-168 245 -314 455 -323 465 -17 19 -19
19 -97 -38z"/>
<path d="M52 709 c-23 -61 -39 -117 -35 -123 3 -6 89 -131 190 -279 l184 -267
235 0 c190 0 233 2 227 13 -4 7 -35 52 -68 100 l-60 87 -110 0 -110 1 -198
289 c-109 160 -202 290 -206 290 -4 0 -26 -50 -49 -111z"/>
</g>
</svg>
